# xmcd CD database file
#
# Track frame offsets:
#	150
#	22199
#	36323
#	57472
#	75421
#	92046
#	110620
#	130094
#	148043
#	166517
#	184816
#
# Disc length: 2765 seconds
#
# Revision: 0
# Processed by: cddbd v1.5.2PL0 Copyright (c) Steve Scherf et al.
# Submitted via: CDex 1.51
#
DISCID=900acb0b
DTITLE=David Baerwald - Here Comes the New Folk Underground
DYEAR=1900
DGENRE=Salsa
TTITLE0=David Baerwald - Why
TTITLE1=David Baerwald - Compassion
TTITLE2=David Baerwald - Crash
TTITLE3=David Baerwald - Nothing's Gonna Bring Me Down
TTITLE4=David Baerwald - Bozo Weirdo Wacko Crap
TTITLE5=David Baerwald - Love #29
TTITLE6=David Baerwald - If (A Boy Whore in a Man's Jail)
TTITLE7=David Baerwald - Wondering
TTITLE8=David Baerwald - Hellbound Train
TTITLE9=David Baerwald - Me and My Girl
TTITLE10=David Baerwald - untitled
EXTD=
EXTT0=
EXTT1=
EXTT2=
EXTT3=
EXTT4=
EXTT5=
EXTT6=
EXTT7=
EXTT8=
EXTT9=
EXTT10=
PLAYORDER=
